<svg xmlns="http://www.w3.org/2000/svg" version="1.1" xmlns:xlink="http://www.w3.org/1999/xlink" width="256" height="367"><svg width="256" height="367" viewBox="0 0 256 367" fill="none" xmlns="http://www.w3.org/2000/svg">
<path d="M245.78 348.767H239.151C239.151 348.697 239.119 348.626 239.105 348.56L238.923 347.75C238.807 347.217 238.682 346.688 238.552 346.164C238.496 345.918 238.435 345.671 238.375 345.424C238.203 344.733 238.022 344.041 237.836 343.35L237.78 343.152C237.575 342.403 237.362 341.657 237.138 340.914L236.915 340.196C236.762 339.685 236.599 339.179 236.45 338.672C236.362 338.395 236.269 338.122 236.181 337.848C236.018 337.36 235.851 336.871 235.679 336.386C235.59 336.131 235.498 335.871 235.409 335.62C235.192 335.012 234.969 334.409 234.74 333.81C234.689 333.682 234.647 333.558 234.596 333.431C234.326 332.726 234.043 332.026 233.754 331.325C233.652 331.07 233.545 330.819 233.438 330.568C233.243 330.127 233.048 329.643 232.848 329.185L232.471 328.335C232.276 327.894 232.076 327.454 231.872 327.013C231.746 326.74 231.616 326.463 231.486 326.19C231.249 325.683 231.021 325.181 230.756 324.683C230.659 324.494 230.57 324.3 230.473 324.106C230.143 323.45 229.803 322.785 229.459 322.151L228.994 321.327L228.339 320.133L227.828 319.252C227.614 318.883 227.4 318.513 227.182 318.143C227.01 317.843 226.833 317.544 226.656 317.262C226.415 316.861 226.191 316.469 225.926 316.072L225.257 314.998C224.941 314.504 224.625 314.007 224.299 313.518C224.095 313.209 223.89 312.906 223.681 312.602C223.472 312.298 223.244 311.95 223.021 311.628C222.798 311.307 222.556 310.985 222.352 310.668C222.147 310.351 221.924 310.065 221.706 309.787C221.487 309.51 221.241 309.14 221.004 308.818L220.348 307.937C219.884 307.351 219.456 306.766 219 306.175L218.363 305.369C218.094 305.03 217.815 304.695 217.541 304.361L216.927 303.621C216.644 303.282 216.355 302.947 216.067 302.608L215.463 301.912L214.561 300.89L214.027 300.3C212.916 299.08 211.777 297.877 210.61 296.706L210.099 296.19L209.029 295.146L208.504 294.644C208.132 294.288 207.76 293.935 207.384 293.587L206.998 293.235C205.683 292.024 204.33 290.843 202.954 289.711L202.577 289.398C202.153 289.046 201.725 288.698 201.294 288.355L200.867 288.011C200.402 287.659 199.979 287.311 199.528 286.963L199.3 286.791C197.78 285.628 196.223 284.496 194.652 283.408L194.433 283.254C193.936 282.915 193.439 282.58 192.937 282.25L192.607 282.034C192.095 281.695 191.579 281.365 191.063 281.034L190.975 280.981C189.264 279.898 187.521 278.86 185.746 277.867L185.676 277.823C185.113 277.511 184.551 277.207 183.988 276.903L183.742 276.771C180.748 275.17 177.674 273.702 174.52 272.366L174.324 272.282C173.492 271.93 172.656 271.591 171.81 271.256H188.446C191.156 271.256 193.355 268.301 193.355 264.649C193.355 260.998 191.156 258.043 188.446 258.043H183.491C183.798 257.303 184.137 256.466 184.504 255.523C189.19 252.757 197.436 246.864 205.618 236.037L205.683 235.954C206.302 235.143 206.911 234.305 207.509 233.439L207.63 233.267C208.225 232.417 208.82 231.54 209.406 230.624L209.564 230.382C209.843 229.941 210.122 229.501 210.401 229.061C210.401 229.061 210.401 229.025 210.433 229.003C210.721 228.563 211.005 228.078 211.289 227.607L211.47 227.303C211.712 226.898 211.958 226.484 212.195 226.066C212.241 225.991 212.288 225.916 212.33 225.836C212.604 225.361 212.878 224.876 213.148 224.387L213.334 224.048C213.557 223.643 213.776 223.233 213.994 222.819C214.059 222.705 214.124 222.586 214.185 222.467C214.445 221.969 214.705 221.467 214.965 220.956L215.147 220.599C215.351 220.185 215.56 219.763 215.765 219.34L215.988 218.899C216.239 218.38 216.485 217.851 216.732 217.318L216.885 216.979C217.09 216.538 217.29 216.098 217.49 215.658L217.727 215.129C217.959 214.596 218.191 214.059 218.415 213.517C218.456 213.42 218.498 213.319 218.535 213.222C218.745 212.724 218.949 212.218 219.154 211.707L219.386 211.125C219.577 210.641 219.767 210.152 219.953 209.663L220.093 209.293C220.311 208.712 220.525 208.117 220.739 207.531L220.962 206.906C221.129 206.439 221.292 205.963 221.455 205.487C221.515 205.311 221.576 205.135 221.631 204.959C221.836 204.351 222.04 203.73 222.24 203.109C222.305 202.893 222.375 202.669 222.44 202.466L222.905 201.017C222.965 200.805 223.03 200.576 223.091 200.387C223.282 199.748 223.472 199.096 223.653 198.44C223.714 198.233 223.77 198.022 223.825 197.81C223.965 197.304 224.104 196.797 224.239 196.282C224.299 196.049 224.36 195.815 224.425 195.582C224.597 194.903 224.769 194.221 224.936 193.529L225.076 192.952C225.206 192.402 225.336 191.847 225.462 191.287L225.629 190.538C225.787 189.82 225.945 189.103 226.094 188.371C226.126 188.23 226.154 188.085 226.182 187.931C226.312 187.301 226.438 186.662 226.559 186.024C226.61 185.764 226.656 185.504 226.707 185.244C226.828 184.588 226.944 183.923 227.061 183.266C227.084 183.126 227.112 182.989 227.135 182.852C227.265 182.077 227.392 181.296 227.516 180.509C227.558 180.245 227.6 179.981 227.637 179.712C227.735 179.073 227.828 178.43 227.921 177.778L228.004 177.179C228.116 176.369 228.223 175.554 228.325 174.726C228.358 174.466 228.385 174.206 228.418 173.942C228.499 173.284 228.573 172.624 228.641 171.96C228.669 171.722 228.697 171.489 228.72 171.251C228.81 170.399 228.894 169.54 228.971 168.674C228.971 168.432 229.013 168.19 229.032 167.943C229.092 167.247 229.152 166.547 229.204 165.842C229.204 165.582 229.245 165.322 229.264 165.063C229.329 164.164 229.39 163.26 229.445 162.349C229.445 162.142 229.445 161.909 229.478 161.724C229.52 160.966 229.562 160.204 229.594 159.438C229.594 159.16 229.594 158.883 229.631 158.605C229.668 157.658 229.706 156.707 229.734 155.742C229.734 155.61 229.734 155.474 229.734 155.337C229.758 154.48 229.777 153.614 229.789 152.739C229.789 152.452 229.789 152.166 229.789 151.88C229.789 150.94 229.789 149.995 229.789 149.043V148.823C229.789 147.81 229.789 146.784 229.789 145.74V144.859C229.789 143.978 229.752 143.053 229.729 142.137V141.639C229.696 140.582 229.654 139.512 229.613 138.437C229.613 138.16 229.585 137.878 229.575 137.6C229.535 136.696 229.489 135.785 229.436 134.869C229.436 134.645 229.436 134.429 229.399 134.187C229.334 133.085 229.262 131.976 229.185 130.857L229.129 130.077C229.059 129.143 228.99 128.205 228.911 127.258C228.911 126.985 228.869 126.712 228.846 126.439C228.748 125.294 228.641 124.135 228.53 122.973C228.53 122.752 228.483 122.532 228.464 122.308C228.367 121.317 228.26 120.317 228.153 119.308C228.121 119.004 228.088 118.705 228.051 118.401C227.921 117.203 227.781 116 227.632 114.78C227.632 114.63 227.591 114.481 227.572 114.34C227.439 113.247 227.298 112.149 227.149 111.045C227.102 110.719 227.061 110.393 227.014 110.067C226.841 108.816 226.662 107.555 226.48 106.284C207.886 -19.1313 76.1219 1.22213 76.1219 1.22213L80.3427 28.1692L0.654907 107.936L4.13657 138.737L34.3234 156.355C35.6691 153.114 37.3969 150.027 39.4738 147.154C58.9507 125.866 96.7377 109.156 107.555 105.689C109.721 104.998 110.953 104.65 110.953 104.65C59.211 168.102 65.0959 240.794 67.4015 258.122C65.0029 258.562 63.1482 261.306 63.1482 264.654C63.1482 268.301 65.3469 271.261 68.0569 271.261H84.6936C57.0246 282.235 35.0615 303.136 23.5995 329.401C23.586 329.437 23.5705 329.472 23.553 329.506C22.707 331.456 21.9199 333.434 21.1916 335.439C21.1929 335.46 21.1929 335.48 21.1916 335.501C20.9964 336.047 20.8058 336.593 20.6199 337.144C20.5502 337.342 20.4804 337.54 20.4153 337.743C20.248 338.236 20.093 338.734 19.9505 339.236C19.8668 339.491 19.7878 339.751 19.7088 340.007C19.56 340.478 19.4159 340.954 19.2765 341.429L19.0255 342.31C18.8953 342.751 18.7652 343.222 18.6443 343.68C18.556 344.006 18.4723 344.328 18.3886 344.654C18.2771 345.094 18.1609 345.534 18.054 345.975C17.947 346.415 17.8448 346.856 17.7425 347.323C17.6402 347.79 17.5101 348.336 17.3985 348.847H10.7652C9.48965 348.82 8.22134 349.035 7.03468 349.479C5.84802 349.923 4.76695 350.588 3.85489 351.433C2.94283 352.278 2.21812 353.288 1.72338 354.402C1.22865 355.517 0.973805 356.713 0.973805 357.922C0.973805 359.131 1.22865 360.328 1.72338 361.442C2.21812 362.557 2.94283 363.566 3.85489 364.411C4.76695 365.257 5.84802 365.921 7.03468 366.365C8.22134 366.809 9.48965 367.024 10.7652 366.998H245.864C247.139 367.024 248.407 366.809 249.594 366.365C250.781 365.921 251.862 365.257 252.774 364.411C253.686 363.566 254.411 362.557 254.905 361.442C255.4 360.328 255.655 359.131 255.655 357.922C255.655 356.713 255.4 355.517 254.905 354.402C254.411 353.288 253.686 352.278 252.774 351.433C251.862 350.588 250.781 349.923 249.594 349.479C248.407 349.035 247.139 348.82 245.864 348.847L245.78 348.767Z" fill="#595653"></path>
</svg><style>@media (prefers-color-scheme: light) { :root { filter: none; } }
@media (prefers-color-scheme: dark) { :root { filter: none; } }
</style></svg>